<svg width="30" height="30" viewBox="0 0 108 108" fill="none" xmlns="http://www.w3.org/2000/svg">
    <g filter="url(#filter0_d_11_68)">
    <circle cx="54" cy="50" r="50" fill="#BFBFBF"/>
    <path d="M53.9996 39.8096C52.0176 39.8096 50.08 40.3973 48.4321 41.4985C46.7841 42.5996 45.4996 44.1647 44.7411 45.9959C43.9826 47.8271 43.7842 49.842 44.1708 51.786C44.5575 53.7299 45.5119 55.5155 46.9135 56.917C48.315 58.3185 50.1006 59.273 52.0445 59.6597C53.9885 60.0463 56.0034 59.8479 57.8346 59.0894C59.6657 58.3309 61.2309 57.0464 62.332 55.3984C63.4332 53.7504 64.0209 51.8129 64.0209 49.8309C64.0179 47.174 62.9611 44.6268 61.0824 42.7481C59.2037 40.8694 56.6565 39.8126 53.9996 39.8096ZM53.9996 56.2081C52.7383 56.2081 51.5053 55.8341 50.4566 55.1333C49.4079 54.4326 48.5905 53.4366 48.1078 52.2713C47.6252 51.1061 47.4989 49.8238 47.7449 48.5868C47.991 47.3497 48.5984 46.2134 49.4902 45.3215C50.3821 44.4297 51.5184 43.8223 52.7555 43.5762C53.9925 43.3302 55.2748 43.4564 56.44 43.9391C57.6053 44.4218 58.6013 45.2392 59.302 46.2879C60.0028 47.3366 60.3768 48.5696 60.3768 49.8309C60.3749 51.5216 59.7024 53.1426 58.5069 54.3382C57.3113 55.5337 55.6904 56.2062 53.9996 56.2081Z" fill="black"/>
    <path d="M79.0016 57.3832L75.3837 54.4049C76.0251 51.3893 76.0251 48.2725 75.3837 45.2568L79.0016 42.2786C79.4189 41.9367 79.7008 41.4574 79.797 40.9266C79.8931 40.3958 79.7971 39.8481 79.5262 39.3816L75.8124 32.9494C75.5439 32.4814 75.1175 32.1243 74.6096 31.9421C74.1018 31.7599 73.5456 31.7646 73.0409 31.9552L68.6496 33.6004C66.362 31.5336 63.6633 29.9738 60.7305 29.0234L59.96 24.4033C59.8728 23.8708 59.5988 23.3868 59.1871 23.0381C58.7754 22.6893 58.2529 22.4985 57.7134 22.5H50.286C49.7465 22.4986 49.2241 22.6893 48.8124 23.038C48.4007 23.3868 48.1267 23.8707 48.0394 24.4031L47.2694 29.0234C44.3365 29.9738 41.6378 31.5336 39.3502 33.6004L34.9585 31.955C34.4538 31.7645 33.8977 31.7599 33.3899 31.9421C32.8822 32.1243 32.4558 32.4813 32.1874 32.9493L28.4737 39.3819C28.2028 39.8485 28.1069 40.3962 28.2031 40.927C28.2993 41.4578 28.5813 41.937 28.9987 42.2788L32.6162 45.2568C31.9749 48.2725 31.9749 51.3893 32.6162 54.4049L28.9983 57.3832C28.5811 57.7251 28.2991 58.2043 28.203 58.7351C28.1069 59.266 28.2028 59.8136 28.4737 60.2802L32.1875 66.7124C32.456 67.1804 32.8824 67.5374 33.3902 67.7196C33.8981 67.9018 34.4542 67.8971 34.959 67.7065L39.3503 66.0613C41.6379 68.1282 44.3366 69.6879 47.2695 70.6383L48.0395 75.2585C48.1268 75.7909 48.4008 76.2749 48.8124 76.6236C49.2241 76.9724 49.7465 77.1632 50.286 77.1618H57.7134C58.2529 77.1632 58.7754 76.9725 59.187 76.6238C59.5987 76.275 59.8727 75.791 59.96 75.2586L60.7302 70.6383C63.663 69.6879 66.3617 68.1281 68.6493 66.0613L73.0409 67.7067C73.5456 67.8972 74.1017 67.9018 74.6094 67.7196C75.1172 67.5374 75.5435 67.1804 75.812 66.7125L79.5255 60.2798C79.7964 59.8134 79.8925 59.2659 79.7965 58.7351C79.7005 58.2044 79.4188 57.7251 79.0016 57.3832ZM73.2353 63.8879L67.7567 61.8354L66.9271 62.6706C64.6446 64.9712 61.7896 66.6212 58.6567 67.4504L57.5179 67.7506L56.5562 73.5176H51.4441L50.4828 67.7506L49.344 67.4504C46.2111 66.6212 43.3561 64.9712 41.0736 62.6706L40.244 61.8354L34.7645 63.8879L32.2089 59.4607L36.7218 55.7455L36.4143 54.6098C35.5688 51.48 35.5688 48.1818 36.4143 45.052L36.7218 43.9164L32.2089 40.2012L34.765 35.7738L40.2436 37.8264L41.0732 36.9912C43.3557 34.6906 46.2107 33.0405 49.3437 32.2114L50.4824 31.9112L51.4437 26.1441H56.5562L57.5175 31.9112L58.6563 32.2114C61.7892 33.0405 64.6442 34.6906 66.9267 36.9912L67.7564 37.8264L73.2349 35.7738L75.7912 40.2011L71.2783 43.9164L71.5858 45.052C72.4313 48.1818 72.4313 51.48 71.5858 54.6098L71.2783 55.7455L75.7912 59.4606L73.2353 63.8879Z" fill="black"/>
    </g>
    <defs>
    <filter id="filter0_d_11_68" x="0" y="0" width="108" height="108" filterUnits="userSpaceOnUse" color-interpolation-filters="sRGB">
    <feFlood flood-opacity="0" result="BackgroundImageFix"/>
    <feColorMatrix in="SourceAlpha" type="matrix" values="0 0 0 0 0 0 0 0 0 0 0 0 0 0 0 0 0 0 127 0" result="hardAlpha"/>
    <feOffset dy="4"/>
    <feGaussianBlur stdDeviation="2"/>
    <feComposite in2="hardAlpha" operator="out"/>
    <feColorMatrix type="matrix" values="0 0 0 0 0 0 0 0 0 0 0 0 0 0 0 0 0 0 0.25 0"/>
    <feBlend mode="normal" in2="BackgroundImageFix" result="effect1_dropShadow_11_68"/>
    <feBlend mode="normal" in="SourceGraphic" in2="effect1_dropShadow_11_68" result="shape"/>
    </filter>
    </defs>
    </svg>
    