<svg width="15" height="13" viewBox="0 0 17 15" fill="none" xmlns="http://www.w3.org/2000/svg">
<path fill-rule="evenodd" clip-rule="evenodd" d="M6.48119 0.900204C6.29248 1.05585 6.19812 1.13369 6.09735 1.19906C5.86635 1.34891 5.60691 1.45291 5.33409 1.50504C5.21508 1.52779 5.09149 1.53733 4.84434 1.55642C4.22334 1.60439 3.91284 1.62836 3.65379 1.71692C3.05463 1.92175 2.58335 2.37788 2.37172 2.95778C2.28022 3.2085 2.25545 3.50903 2.20588 4.11006C2.18616 4.34927 2.17631 4.46888 2.1528 4.58408C2.09894 4.84813 1.99148 5.09922 1.83666 5.3228C1.76912 5.42033 1.6887 5.51165 1.52788 5.6943C1.12381 6.15323 0.921769 6.38265 0.803301 6.62258C0.529271 7.1775 0.529271 7.8225 0.803301 8.37743C0.921777 8.61735 1.12381 8.84678 1.52788 9.3057C1.68868 9.48833 1.76912 9.57968 1.83666 9.67718C1.99148 9.90075 2.09894 10.1519 2.1528 10.4159C2.17631 10.5311 2.18616 10.6508 2.20588 10.8899C2.25545 11.491 2.28022 11.7915 2.37172 12.0422C2.58335 12.6221 3.05463 13.0783 3.65379 13.2831C3.91284 13.3716 4.22334 13.3956 4.84434 13.4436C5.09149 13.4627 5.21508 13.4722 5.33409 13.495C5.60691 13.5471 5.86635 13.6511 6.09735 13.801C6.19812 13.8663 6.29248 13.9441 6.48119 14.0998C6.95536 14.4909 7.1924 14.6864 7.44029 14.8011C8.01365 15.0663 8.68007 15.0663 9.25342 14.8011C9.50132 14.6864 9.73836 14.4909 10.2125 14.0998C10.4012 13.9441 10.4956 13.8663 10.5963 13.801C10.8273 13.6511 11.0868 13.5471 11.3596 13.495C11.4786 13.4722 11.6022 13.4627 11.8494 13.4436C12.4704 13.3956 12.7809 13.3716 13.0399 13.2831C13.6391 13.0783 14.1104 12.6221 14.322 12.0422C14.4135 11.7915 14.4383 11.491 14.4878 10.8899C14.5075 10.6508 14.5174 10.5311 14.5409 10.4159C14.5948 10.1519 14.7023 9.90075 14.8571 9.67718C14.9246 9.57968 15.005 9.48833 15.1658 9.3057C15.5699 8.84678 15.7719 8.61735 15.8904 8.37743C16.1644 7.8225 16.1644 7.1775 15.8904 6.62258C15.7719 6.38265 15.5699 6.15323 15.1658 5.6943C15.005 5.51165 14.9246 5.42033 14.8571 5.3228C14.7023 5.09922 14.5948 4.84813 14.5409 4.58408C14.5174 4.46888 14.5075 4.34927 14.4878 4.11006C14.4383 3.50903 14.4135 3.2085 14.322 2.95778C14.1104 2.37788 13.6391 1.92175 13.0399 1.71692C12.7809 1.62836 12.4704 1.60439 11.8494 1.55642C11.6022 1.53733 11.4786 1.52779 11.3596 1.50504C11.0868 1.45291 10.8273 1.34891 10.5963 1.19906C10.4956 1.13369 10.4012 1.05586 10.2125 0.900204C9.73836 0.509124 9.50132 0.313584 9.25342 0.198917C8.68007 -0.0663056 8.01365 -0.0663056 7.44029 0.198917C7.1924 0.313577 6.95536 0.509124 6.48119 0.900204ZM11.7359 5.89736C11.9822 5.65898 11.9822 5.2725 11.7359 5.03412C11.4897 4.79575 11.0903 4.79575 10.844 5.03412L7.08554 8.6718L5.84969 7.4757C5.6034 7.23735 5.20408 7.23735 4.95779 7.4757C4.7115 7.71405 4.7115 8.10053 4.95779 8.33895L6.63956 9.96668C6.88585 10.205 7.28516 10.205 7.5315 9.96668L11.7359 5.89736Z" fill="#0CB0FF"/>
</svg>
